<svg width="72" height="71" viewBox="0 0 72 71" fill="none" xmlns="http://www.w3.org/2000/svg">
<path d="M65.5861 35.5C65.5861 19.17 52.3328 5.91663 36.0028 5.91663C19.6728 5.91663 6.41943 19.17 6.41943 35.5C6.41943 51.83 19.6728 65.0833 36.0028 65.0833" stroke="#292D32" stroke-width="4.4375" stroke-linecap="round" stroke-linejoin="round"/>
<path d="M65.5861 35.5C65.5861 19.17 52.3328 5.91663 36.0028 5.91663C19.6728 5.91663 6.41943 19.17 6.41943 35.5C6.41943 51.83 19.6728 65.0833 36.0028 65.0833" stroke="url(#paint0_linear_4641_9185)" stroke-width="4.4375" stroke-linecap="round" stroke-linejoin="round"/>
<path d="M24.1739 8.875H27.1322C21.3635 26.1517 21.3635 44.8483 27.1322 62.125H24.1739" stroke="#292D32" stroke-width="4.4375" stroke-linecap="round" stroke-linejoin="round"/>
<path d="M24.1739 8.875H27.1322C21.3635 26.1517 21.3635 44.8483 27.1322 62.125H24.1739" stroke="url(#paint1_linear_4641_9185)" stroke-width="4.4375" stroke-linecap="round" stroke-linejoin="round"/>
<path d="M44.8779 8.875C47.7475 17.5133 49.1971 26.5067 49.1971 35.5" stroke="#292D32" stroke-width="4.4375" stroke-linecap="round" stroke-linejoin="round"/>
<path d="M44.8779 8.875C47.7475 17.5133 49.1971 26.5067 49.1971 35.5" stroke="#91D0F0" stroke-width="4.4375" stroke-linecap="round" stroke-linejoin="round"/>
<path d="M44.8779 8.875C47.7475 17.5133 49.1971 26.5067 49.1971 35.5" stroke="url(#paint2_linear_4641_9185)" stroke-width="4.4375" stroke-linecap="round" stroke-linejoin="round"/>
<path d="M9.37793 47.3333V44.375C18.0163 47.2446 27.0096 48.6942 36.0029 48.6942" stroke="#292D32" stroke-width="4.4375" stroke-linecap="round" stroke-linejoin="round"/>
<path d="M9.37793 47.3333V44.375C18.0163 47.2446 27.0096 48.6942 36.0029 48.6942" stroke="#91D0F0" stroke-width="4.4375" stroke-linecap="round" stroke-linejoin="round"/>
<path d="M9.37793 26.6251C26.6546 20.8564 45.3513 20.8564 62.6279 26.6251" stroke="#292D32" stroke-width="4.4375" stroke-linecap="round" stroke-linejoin="round"/>
<path d="M9.37793 26.6251C26.6546 20.8564 45.3513 20.8564 62.6279 26.6251" stroke="url(#paint3_linear_4641_9185)" stroke-width="4.4375" stroke-linecap="round" stroke-linejoin="round"/>
<path d="M63.466 59.4863C62.9593 59.4863 62.4793 59.2996 62.0793 58.9263C59.4926 56.4463 56.1327 56.4463 53.5193 58.9263C52.7193 59.6996 51.4659 59.6731 50.6926 58.8731C49.9193 58.0731 49.946 56.8197 50.746 56.0464C54.8793 52.0731 60.666 52.0731 64.826 56.0464C65.626 56.8197 65.6526 58.0731 64.8793 58.8731C64.5326 59.2731 63.9993 59.4863 63.466 59.4863Z" fill="#1D91CC"/>
<path d="M69.1201 53.8334C68.6135 53.8334 68.1068 53.6467 67.7335 53.2734C66.4802 52.0467 65.0668 51.0601 63.5735 50.3401C59.8402 48.5534 55.7601 48.5534 52.0535 50.3401C50.5601 51.0601 49.1735 52.0467 47.8935 53.2734C47.1202 54.0467 45.8402 54.0467 45.0668 53.2467C44.2935 52.4467 44.3202 51.1933 45.0935 50.42C46.6669 48.8733 48.4268 47.6467 50.3202 46.74C55.1468 44.42 60.4801 44.42 65.2801 46.74C67.1735 47.6467 68.9335 48.8733 70.5068 50.42C71.3068 51.1933 71.3068 52.4467 70.5335 53.2467C70.1601 53.62 69.6535 53.8334 69.1201 53.8334Z" fill="#1D91CC"/>
<path d="M57.8139 65.8056C57.1206 65.8056 56.454 65.5389 55.9206 65.0323C54.8806 63.9923 54.8806 62.3122 55.9206 61.2722C56.9606 60.2322 58.6672 60.2322 59.7072 61.2722C60.7472 62.3122 60.7472 63.9923 59.7072 65.0323C59.1739 65.5389 58.5073 65.8056 57.8139 65.8056Z" fill="#1D91CC"/>
<defs>
<linearGradient id="paint0_linear_4641_9185" x1="35.42" y1="8.28585" x2="35.42" y2="102.695" gradientUnits="userSpaceOnUse">
<stop stop-color="#61BAE8"/>
<stop offset="1" stop-color="#D2E8F3"/>
</linearGradient>
<linearGradient id="paint1_linear_4641_9185" x1="24.9689" y1="8.875" x2="24.9689" y2="62.125" gradientUnits="userSpaceOnUse">
<stop stop-color="#62BBE8"/>
<stop offset="1" stop-color="#91D0F0"/>
</linearGradient>
<linearGradient id="paint2_linear_4641_9185" x1="47.0375" y1="8.875" x2="47.0375" y2="35.5" gradientUnits="userSpaceOnUse">
<stop stop-color="#62BBE8"/>
<stop offset="1" stop-color="#91D0F0"/>
</linearGradient>
<linearGradient id="paint3_linear_4641_9185" x1="5.00391" y1="27.5017" x2="66.0039" y2="27.0017" gradientUnits="userSpaceOnUse">
<stop offset="0.00770674" stop-color="#74C2EA"/>
<stop offset="1" stop-color="#73C2EA"/>
</linearGradient>
</defs>
</svg>
