<svg width="75" height="61" viewBox="0 0 75 61" fill="none" xmlns="http://www.w3.org/2000/svg">
<path opacity="0.4" d="M54.0915 15.8332V31.7129H5.11557V15.8332C5.11557 9.9279 9.92766 5.11581 15.8329 5.11581H43.3741C49.2794 5.11581 54.0915 9.9279 54.0915 15.8332Z" fill="url(#paint0_linear_4641_9125)" stroke="#1774A3" stroke-width="0.351247"/>
<path d="M4.93994 31.9131V32.4071C4.93994 38.4341 9.83067 43.3001 15.8329 43.3001H25.318C26.6765 43.3001 27.788 44.4116 27.788 45.7701V48.1661C27.788 49.5246 26.6765 50.6362 25.318 50.6362H19.3404C18.3277 50.6362 17.4879 51.476 17.4879 52.4887C17.4879 53.5014 18.303 54.3413 19.3404 54.3413H39.9654C40.9782 54.3413 41.818 53.5014 41.818 52.4887C41.818 51.476 40.9782 50.6362 39.9654 50.6362H33.9879C32.6293 50.6362 31.5178 49.5246 31.5178 48.1661V45.7701C31.5178 44.4116 32.6293 43.3001 33.9879 43.3001H43.3988C49.4258 43.3001 54.2918 38.4094 54.2918 32.4071V31.9131H4.93994Z" fill="url(#paint1_linear_4641_9125)"/>
<path d="M63.2676 25.1648H50.2009C45.9277 25.1648 44.3716 26.7209 44.3716 31.0435V50.1371C44.3716 54.4844 45.903 56.0159 50.2009 56.0159H63.2676C67.5408 56.0159 69.0969 54.4597 69.0969 50.1371V31.0435C69.0969 26.6962 67.5655 25.1648 63.2676 25.1648ZM56.7466 51.8909C55.2399 51.8909 54.0295 50.6805 54.0295 49.1738C54.0295 47.6671 55.2399 46.4567 56.7466 46.4567C58.2533 46.4567 59.4637 47.6671 59.4637 49.1738C59.4637 50.6805 58.2533 51.8909 56.7466 51.8909Z" fill="url(#paint2_linear_4641_9125)"/>
<path opacity="0.4" d="M59.4542 49.1741C59.4542 50.6808 58.2438 51.8912 56.7371 51.8912C55.2304 51.8912 54.02 50.6808 54.02 49.1741C54.02 47.6674 55.2304 46.457 56.7371 46.457C58.2438 46.457 59.4542 47.6921 59.4542 49.1741Z" fill="white"/>
<defs>
<linearGradient id="paint0_linear_4641_9125" x1="29.1177" y1="6.01929" x2="29.1177" y2="49.0193" gradientUnits="userSpaceOnUse">
<stop stop-color="#61BAE8"/>
<stop offset="1" stop-color="#D2E8F3"/>
</linearGradient>
<linearGradient id="paint1_linear_4641_9125" x1="36.8808" y1="30.3263" x2="-26.1987" y2="21.8559" gradientUnits="userSpaceOnUse">
<stop stop-color="#1D91CC"/>
<stop offset="1" stop-color="#D0DFE9"/>
</linearGradient>
<linearGradient id="paint2_linear_4641_9125" x1="59.7146" y1="44.0245" x2="35.6789" y2="15.3108" gradientUnits="userSpaceOnUse">
<stop stop-color="#1D91CC"/>
<stop offset="1" stop-color="#D0DFE9"/>
</linearGradient>
</defs>
</svg>
