<svg width="76" height="76" viewBox="0 0 76 76" fill="none" xmlns="http://www.w3.org/2000/svg">
<path d="M67.2918 69.6667H8.7085C7.41016 69.6667 6.3335 68.5901 6.3335 67.2917C6.3335 65.9934 7.41016 64.9167 8.7085 64.9167H67.2918C68.5902 64.9167 69.6668 65.9934 69.6668 67.2917C69.6668 68.5901 68.5902 69.6667 67.2918 69.6667Z" fill="url(#paint0_linear_4648_9224)"/>
<g opacity="0.4">
<path d="M65.2106 43.3832L42.3156 66.2782C37.8189 70.7749 30.5672 70.7749 26.1022 66.3099L11.5039 51.7115L50.6439 12.5715L65.2422 27.1699C69.7072 31.6349 69.7072 38.8865 65.2106 43.3832Z" fill="#292D32"/>
<path d="M65.2106 43.3832L42.3156 66.2782C37.8189 70.7749 30.5672 70.7749 26.1022 66.3099L11.5039 51.7115L50.6439 12.5715L65.2422 27.1699C69.7072 31.6349 69.7072 38.8865 65.2106 43.3832Z" fill="url(#paint1_linear_4648_9224)"/>
</g>
<path d="M50.6428 12.5714L11.4711 51.7114L8.58943 48.8298C4.12443 44.3648 4.12443 37.1131 8.6211 32.6164L31.5161 9.72144C36.0128 5.22477 43.2644 5.22477 47.7294 9.68977L50.6428 12.5714Z" fill="#292D32"/>
<path d="M50.6428 12.5714L11.4711 51.7114L8.58943 48.8298C4.12443 44.3648 4.12443 37.1131 8.6211 32.6164L31.5161 9.72144C36.0128 5.22477 43.2644 5.22477 47.7294 9.68977L50.6428 12.5714Z" fill="url(#paint2_linear_4648_9224)"/>
<path d="M40.8195 55.733L36.5445 60.008C35.6578 60.8946 34.2328 60.8946 33.3462 60.008C32.4595 59.1213 32.4595 57.6963 33.3462 56.8096L37.6212 52.5346C38.5078 51.648 39.9328 51.648 40.8195 52.5346C41.7062 53.4213 41.7062 54.8463 40.8195 55.733Z" fill="#1D91CC"/>
<path d="M54.6864 41.8633L46.168 50.3817C45.2814 51.2683 43.8564 51.2683 42.9697 50.3817C42.083 49.495 42.083 48.07 42.9697 47.1833L51.488 38.665C52.3747 37.7783 53.7997 37.7783 54.6864 38.665C55.5414 39.5517 55.5414 40.9767 54.6864 41.8633Z" fill="#1D91CC"/>
<defs>
<linearGradient id="paint0_linear_4648_9224" x1="45.6344" y1="67.8205" x2="45.257" y2="60.3208" gradientUnits="userSpaceOnUse">
<stop stop-color="#1D91CC"/>
<stop offset="1" stop-color="#D0DFE9"/>
</linearGradient>
<linearGradient id="paint1_linear_4648_9224" x1="39.4832" y1="14.8573" x2="39.4832" y2="105.942" gradientUnits="userSpaceOnUse">
<stop stop-color="#61BAE8"/>
<stop offset="1" stop-color="#D2E8F3"/>
</linearGradient>
<linearGradient id="paint2_linear_4648_9224" x1="33.416" y1="34.0781" x2="0.202047" y2="-15.4649" gradientUnits="userSpaceOnUse">
<stop stop-color="#1D91CC"/>
<stop offset="1" stop-color="#D0DFE9"/>
</linearGradient>
</defs>
</svg>
