<svg width="74" height="77" viewBox="0 0 74 77" fill="none" xmlns="http://www.w3.org/2000/svg">
<g opacity="0.4">
<path d="M8.48691 57.5045C7.22274 57.5045 6.17441 56.4562 6.17441 55.192V37.617C6.02024 29.2612 9.13441 21.3678 14.9311 15.4478C20.7277 9.55867 28.4977 6.32117 36.8536 6.32117C53.9352 6.32117 67.8411 20.227 67.8411 37.3087V54.8837C67.8411 56.1478 66.7927 57.1962 65.5286 57.1962C64.2644 57.1962 63.2161 56.1478 63.2161 54.8837V37.3087C63.2161 22.7862 51.4069 10.9462 36.8536 10.9462C29.7311 10.9462 23.1327 13.6903 18.2302 18.6853C13.2969 23.7112 10.6761 30.402 10.7994 37.5553V55.1612C10.7994 56.4562 9.78191 57.5045 8.48691 57.5045Z" fill="#292D32"/>
<path d="M8.48691 57.5045C7.22274 57.5045 6.17441 56.4562 6.17441 55.192V37.617C6.02024 29.2612 9.13441 21.3678 14.9311 15.4478C20.7277 9.55867 28.4977 6.32117 36.8536 6.32117C53.9352 6.32117 67.8411 20.227 67.8411 37.3087V54.8837C67.8411 56.1478 66.7927 57.1962 65.5286 57.1962C64.2644 57.1962 63.2161 56.1478 63.2161 54.8837V37.3087C63.2161 22.7862 51.4069 10.9462 36.8536 10.9462C29.7311 10.9462 23.1327 13.6903 18.2302 18.6853C13.2969 23.7112 10.6761 30.402 10.7994 37.5553V55.1612C10.7994 56.4562 9.78191 57.5045 8.48691 57.5045Z" fill="url(#paint0_linear_4641_9157)"/>
</g>
<path d="M18.3173 38.3877H17.9164C11.4414 38.3877 6.16895 43.6602 6.16895 50.1352V55.9319C6.16895 62.4069 11.4414 67.6794 17.9164 67.6794H18.3173C24.7923 67.6794 30.0648 62.4069 30.0648 55.9319V50.1352C30.0648 43.6602 24.7923 38.3877 18.3173 38.3877Z" fill="#292D32"/>
<path d="M18.3173 38.3877H17.9164C11.4414 38.3877 6.16895 43.6602 6.16895 50.1352V55.9319C6.16895 62.4069 11.4414 67.6794 17.9164 67.6794H18.3173C24.7923 67.6794 30.0648 62.4069 30.0648 55.9319V50.1352C30.0648 43.6602 24.7923 38.3877 18.3173 38.3877Z" fill="url(#paint1_linear_4641_9157)"/>
<path d="M56.0761 38.3877H55.6752C49.2002 38.3877 43.9277 43.6602 43.9277 50.1352V55.9319C43.9277 62.4069 49.2002 67.6794 55.6752 67.6794H56.0761C62.5511 67.6794 67.8236 62.4069 67.8236 55.9319V50.1352C67.8236 43.6602 62.5511 38.3877 56.0761 38.3877Z" fill="#292D32"/>
<path d="M56.0761 38.3877H55.6752C49.2002 38.3877 43.9277 43.6602 43.9277 50.1352V55.9319C43.9277 62.4069 49.2002 67.6794 55.6752 67.6794H56.0761C62.5511 67.6794 67.8236 62.4069 67.8236 55.9319V50.1352C67.8236 43.6602 62.5511 38.3877 56.0761 38.3877Z" fill="url(#paint2_linear_4641_9157)"/>
<rect x="60.8359" y="59.8008" width="6.16667" height="25.2931" rx="3.08333" transform="rotate(63.783 60.8359 59.8008)" fill="#1D91CC"/>
<defs>
<linearGradient id="paint0_linear_4641_9157" x1="36.3976" y1="8.37071" x2="36.3976" y2="90.041" gradientUnits="userSpaceOnUse">
<stop offset="0.402183" stop-color="#059DEA"/>
<stop offset="1" stop-color="#D2E8F3"/>
</linearGradient>
<linearGradient id="paint1_linear_4641_9157" x1="20.9973" y1="56.2941" x2="-1.74897" y2="28.6345" gradientUnits="userSpaceOnUse">
<stop stop-color="#1D91CC"/>
<stop offset="1" stop-color="#D0DFE9"/>
</linearGradient>
<linearGradient id="paint2_linear_4641_9157" x1="58.7561" y1="56.2941" x2="36.0098" y2="28.6345" gradientUnits="userSpaceOnUse">
<stop stop-color="#1D91CC"/>
<stop offset="1" stop-color="#D0DFE9"/>
</linearGradient>
</defs>
</svg>
